# xmcd
# 
# Track frame offsets:
#     150
#     25985
#     45373
#     62233
#     75802
#     100212
#     128043
#     148075
#     163900
#     180087
# 
# Disc length: 2643
# 
# Revision: 2
# Processed by: cddbd v1.5.2PL0 Copyright (c) Steve Scherf et al.
# Submitted via: fre:ac v1.0.17
# 
DISCID=760a510a
DTITLE=Seasick Steve - Keepin' The Horse Between Me And The Ground
DYEAR=2016
DGENRE=Blues
TTITLE0=Keepin’ The Horse Between Me And The Ground
TTITLE1=Walkin' Blues
TTITLE2=Bullseye
TTITLE3=Gypsy Blood
TTITLE4=Shipwreck Love
TTITLE5=Hell
TTITLE6=What A Thang
TTITLE7=Grass Is Greener
TTITLE8=Don't Take It Away
TTITLE9=Lonely Road
EXTD=YEAR: 2016
EXTT0=
EXTT1=
EXTT2=
EXTT3=
EXTT4=
EXTT5=
EXTT6=
EXTT7=
EXTT8=
EXTT9=
PLAYORDER=
